<?xml version="1.0" encoding="utf-8"?>
<!-- Generator: Adobe Illustrator 27.5.0, SVG Export Plug-In . SVG Version: 6.00 Build 0)  -->
<svg version="1.1" id="Layer_1" xmlns="http://www.w3.org/2000/svg" xmlns:xlink="http://www.w3.org/1999/xlink" x="0px" y="0px"
	 viewBox="0 0 990 1320" style="enable-background:new 0 0 990 1320;" xml:space="preserve">
<g>
	<g>
		<g>
			<rect x="0.325" y="1110.335" style="fill:#355255;" width="990" height="209.328"/>
		</g>
		<g style="opacity:0.3;">
			<g>
				<g>
					<g>
						<rect x="231.173" y="1181.192" style="fill:#C4C9CC;" width="759.152" height="138.471"/>
						<rect x="538.496" y="1177.35" style="fill:#B2B6B8;" width="451.83" height="142.313"/>
						<g>
							<g>
								<rect x="661.328" y="1188.633" style="fill:#4C596D;" width="328.997" height="131.03"/>
								<g>
									<g>
										<g>
											<g>
												<rect x="675.674" y="1174.503" style="fill:#8D8DA1;" width="314.652" height="124.368"/>
												<g style="opacity:0.4;">
													<polygon style="fill:#8D8DA1;" points="805.258,1298.871 754.117,1174.503 782.977,1174.503 834.118,1298.871 
																											"/>
												</g>
												<g style="opacity:0.4;">
													<polygon style="fill:#8D8DA1;" points="877.395,1298.871 826.247,1174.503 883.95,1174.503 935.098,1298.871 
																											"/>
												</g>
											</g>
											<polygon style="fill:#FFFDF7;" points="990.325,1170.66 641.382,1170.66 641.382,1319.663 674.878,1319.663 
												674.878,1207.974 990.325,1207.974 											"/>
										</g>
									</g>
								</g>
							</g>
						</g>
					</g>
					<g style="opacity:0.8;">
						<rect x="851.12" y="1170.66" style="fill:#85ACBD;" width="139.205" height="149.003"/>
					</g>
				</g>
				<g>
					<g>
						<g>
							<rect x="0.325" y="1147.737" style="fill:#D9DADC;" width="850.795" height="171.926"/>
						</g>
						<rect x="0.325" y="1148.931" style="fill:#FFFDF7;" width="246.833" height="32.418"/>
					</g>
					<g>
						<g>
							<g>
								<rect x="233.97" y="1147.755" style="fill:#4C596D;" width="440.026" height="171.908"/>
								<rect x="222.41" y="1148.544" style="fill:#FFFDF7;" width="23.121" height="171.119"/>
								<rect x="662.435" y="1148.544" style="fill:#FFFDF7;" width="23.122" height="171.119"/>
							</g>
						</g>
						<g>
							<g>
								<polygon style="fill:#B5C1D4;" points="880.691,1319.663 880.691,1113.937 656.535,1141.394 656.535,1319.663 								"/>
								<rect x="878.843" y="1113.937" style="fill:#D2E4F7;" width="23.414" height="205.726"/>
							</g>
						</g>
						<rect x="245.019" y="1149.024" style="fill:#384454;" width="338.145" height="170.639"/>
					</g>
				</g>
			</g>
		</g>
		<g style="opacity:0.3;">
			<g>
				<g>
					<g>
						<g>
							<path style="fill:#F0F8FF;" d="M295.059,1215.275h-12.875c0,5.423-0.924,10.391-2.431,14.631
								c-3.097,8.713-8.679,14.317-13.851,14.317H117.47c-5.171,0-10.754-5.604-13.851-14.317c-1.508-4.24-2.431-9.208-2.431-14.631
								H88.313c0,5.194,0.697,10.12,1.977,14.631c4.196,14.803,14.646,25.043,27.18,25.043h148.433
								c12.532,0,22.984-10.24,27.18-25.043C294.361,1225.395,295.059,1220.469,295.059,1215.275z"/>
						</g>
					</g>
				</g>
			</g>
			<g>
				<g>
					<g>
						<path style="fill:#FDA271;" d="M361.906,1256.22c-0.814-5.513,0.186-15.508,0.279-22.412
							c0.064-4.759-3.45-20.716-1.065-24.273c8.828-13.163,18.919,31.963,19.81,36.918L361.906,1256.22z"/>
						<g>
							<path style="fill:#006D67;" d="M412.487,1319.663c-13.708-48.396-30.53-79.85-33.162-88.217
								c-6.626,0.161-14.441,1.392-20.564,0.546c-0.699,7.302-0.425,41.005,3.005,87.671H412.487z"/>
						</g>
						<path style="fill:#808080;" d="M373.68,1213.55l-10.233,1.481c-4.683,6.061-7.13-0.76-9.291-3.557
							c-2.568-3.322-7.448-5.686-11.083-7.548c-6.408-3.277-22.076-5.413-20.27-15.378c12.56-1.602,38.723-2.684,51.839-1.425
							c5.645,0.545,1.33,5.167,0.257,13.066C374.161,1205.624,374.665,1208.258,373.68,1213.55z"/>
					</g>
					<path style="fill:#005B54;" d="M412.487,1319.663c-13.708-48.396-30.53-79.85-33.162-88.217
						c-6.626,0.161-14.441,1.392-20.564,0.546c-0.699,7.302-0.425,41.005,3.005,87.671H412.487z"/>
				</g>
				<g>
					<g>
						<path style="fill:#FDA271;" d="M484.794,1252.701c0.172-5.569,2.926-15.229,4.237-22.004
							c0.905-4.67,0.268-21.003,3.243-24.073c11.015-11.366,12.965,34.854,12.965,39.889L484.794,1252.701z"/>
						<path style="fill:#006D67;" d="M523.079,1319.663c-4.972-29.737-10.264-56.638-13.504-73.665
							c-1.464-7.677-2.508-13.344-2.92-16.368c-6.55-0.976-14.465-1.106-20.343-2.975c-1.993,7.342-7.073,41.824-9.336,93.008
							H523.079z"/>
						<path style="fill:#808080;" d="M494.88,1218.669c7.249,0.731,8.597-5.356,9.883-8.249c1.527-3.438,4.011-4.49,6.381-6.517
							c4.178-3.573,14.817-6.453,12.848-16.304c-8.767-0.999-30.729-1.746-39.676,0.135c-3.85,0.808-1.363,3.436,2.045,12.031
							C488.372,1204.837,488.065,1217.981,494.88,1218.669z"/>
					</g>
					<path style="fill:#005B54;" d="M523.079,1319.663c-4.972-29.737-10.264-56.638-13.504-73.665
						c-1.464-7.677-2.508-13.344-2.92-16.368c-6.55-0.976-14.465-1.106-20.343-2.975c-1.993,7.342-7.073,41.824-9.336,93.008
						H523.079z"/>
				</g>
			</g>
		</g>
	</g>
	<g>
		<g>
			<g>
				<g>
					<rect x="231.26" y="-0.337" style="fill:#C4C9CC;" width="759.065" height="1117.802"/>
					<rect x="538.544" y="-0.337" style="fill:#B2B6B8;" width="451.781" height="1121.547"/>
					<g>
						<g>
							<g>
								<g>
									<g>
										<g>
											<g style="opacity:0.4;">
												<polygon style="fill:#8D8DA1;" points="805.273,1002.767 754.138,1123.985 782.994,1123.985 834.129,1002.767 
																									"/>
											</g>
										</g>
										<g>
											<polygon style="fill:#FFFDF7;" points="990.325,1091.362 674.909,1091.362 674.909,60.963 990.325,60.963 
												990.325,24.602 641.418,24.602 641.418,1127.73 990.325,1127.73 											"/>
										</g>
									</g>
								</g>
							</g>
						</g>
					</g>
				</g>
			</g>
			<g>
				<g>
					<g>
						<rect x="0.325" y="-0.337" style="fill:#D9DADC;" width="850.804" height="1150.409"/>
					</g>
					<rect x="0.325" y="1117.312" style="fill:#FFFDF7;" width="246.919" height="31.597"/>
				</g>
				<g>
					<g>
						<g>
							<rect x="234.057" y="101.009" style="fill:#4C596D;" width="439.97" height="1049.046"/>
							<polygon style="fill:#FFFDF7;" points="245.617,1149.286 245.617,115.063 662.468,115.063 662.468,1149.286 
								685.587,1149.286 685.587,87.848 222.498,87.848 222.498,1149.286 							"/>
						</g>
						<rect x="247.767" y="114.171" style="fill:#2F3743;" width="412.551" height="24.422"/>
					</g>
					<g>
						<path style="fill:#FFFDF7;" d="M914.929,695.705c0,7.04-5.457,12.747-12.188,12.747l0,0c-6.731,0-12.188-5.707-12.188-12.747
							v-61.242c0-7.04,5.457-12.748,12.188-12.748l0,0c6.731,0,12.188,5.708,12.188,12.748V695.705z"/>
						<g>
							<polygon style="fill:#B5C1D4;" points="656.569,111.656 656.569,1156.255 880.696,1183.016 880.696,60.415 							"/>
							<rect x="878.847" y="60.415" style="fill:#D2E4F7;" width="23.412" height="1122.601"/>
						</g>
					</g>
					<rect x="245.105" y="188.021" style="fill:#384454;" width="338.102" height="960.798"/>
				</g>
				<g>
					<rect x="22.628" y="367.816" style="fill:#3E5B63;" width="162.671" height="74.255"/>
					<rect x="51.335" y="389.215" style="fill:#F4F2EE;" width="105.258" height="6.102"/>
					<rect x="51.335" y="410.444" style="fill:#F4F2EE;" width="105.258" height="8.852"/>
					<rect x="51.335" y="399.443" style="fill:#F4F2EE;" width="105.258" height="4.125"/>
				</g>
			</g>
		</g>
	</g>
	<g style="opacity:0.6;">
		<path style="fill:#54686E;" d="M817.491,1173.999c-35.641-0.215-73.126-0.33-111.811-0.33c-236.248,0-427.765,4.277-427.765,9.556
			c0,5.279,191.518,9.558,427.765,9.558c38.684,0,145.584-9.666,181.225-9.881L817.491,1173.999z"/>
	</g>
	<g>
		<g>
			<g>
				<path style="fill:#FDA271;" d="M361.906,1116.885c-0.814,5.469,0.186,15.387,0.279,22.236c0.064,4.723-3.45,20.553-1.065,24.083
					c8.828,13.06,18.919-31.713,19.81-36.629L361.906,1116.885z"/>
				<g>
					<path style="fill:#006D67;" d="M498.726,663.582c3.698,22.351-19.779,55.569-29.638,87.169
						c-1.113,3.549-2.043,7.074-2.752,10.561c-0.168,0.786-0.313,1.58-0.45,2.367c-7.167,41.338-35.479,97.678-35.098,158.1
						c0.77,121.281-46.879,205.224-51.461,219.685c-6.626-0.161-14.442-1.381-20.565-0.542c-0.725-7.509-0.404-43.161,3.393-92.115
						c1.388-17.926,3.241-37.644,5.681-58.416c2.646-22.505,5.97-46.252,10.149-70.306
						c20.908-120.663,26.398-250.636,27.373-262.586l95.892,4.319C500.396,662.659,499.191,662.04,498.726,663.582z"/>
				</g>
				<path style="fill:#FFFFFF;" d="M373.68,1159.22l-10.233-1.469c-4.683-6.013-7.13,0.754-9.291,3.529
					c-2.568,3.297-7.448,5.642-11.083,7.488c-6.408,3.251-22.076,5.371-20.27,15.258c12.56,1.59,38.723,2.662,51.839,1.414
					c5.645-0.54,1.33-5.126,0.257-12.964C374.161,1167.083,374.665,1164.471,373.68,1159.22z"/>
			</g>
			<path style="fill:#005B54;" d="M469.087,750.752c-1.113,3.549-2.043,7.074-2.752,10.561c-0.168,0.786-0.313,1.58-0.45,2.367
				c-7.167,41.338-35.479,97.678-35.098,158.1c0.77,121.281-46.879,205.224-51.461,219.685c-6.626-0.161-14.442-1.381-20.565-0.542
				c-0.725-7.509-0.404-43.161,3.393-92.115c14.991,4.25,30.568-3.389,39.627-21.336c10.858-21.497,11.727-47.725,11.719-72.053
				c0-19.933-7.991-39.362-2.249-57.256c5.2-16.224,9.051-33.921,12.795-51.541c4.278-20.131,7.023-41.124,10.073-61.56
				c2.883-19.307,9.844-46.748,6.832-64.345L469.087,750.752z"/>
		</g>
		<g>
			<g>
				<path style="fill:#FDA271;" d="M484.794,1120.376c0.172,5.526,2.926,15.11,4.237,21.832c0.905,4.633,0.268,20.839,3.243,23.884
					c11.015,11.277,12.965-34.58,12.965-39.576L484.794,1120.376z"/>
				<path style="fill:#006D67;" d="M536.058,883.419c-0.29,9.279-3.409,20.024-1.8,31.516c0.016,0.115,0.039,0.236,0.054,0.366
					c1.883,13.813,1.639,32.035,0.091,52.205c-0.869,11.356-2.15,23.321-3.69,35.461c-2.119,16.682-4.735,33.693-7.45,49.885
					c-5.025,29.938-10.408,57.073-13.687,74.175c-1.464,7.616-2.508,13.24-2.92,16.239c-6.55,0.968-14.465,1.098-20.344,2.953
					c-3.484-12.736-16.409-107.759-7.205-229.81c0.862-11.447,1.35-22.916,1.525-34.325c0.16-10.005,0.085-19.955-0.19-29.792
					c-0.305-10.959-0.846-21.772-1.57-32.372c-1.678-24.74-4.324-48.289-7.153-69.595c-5.52-41.582-11.712-74.641-12.733-91.421
					l75.488,19.375l14.236,3.656C550.805,727.256,537.202,846.576,536.058,883.419z"/>
				<path style="fill:#FFFFFF;" d="M494.88,1154.141c7.249-0.725,8.597,5.314,9.883,8.185c1.527,3.411,4.011,4.454,6.381,6.465
					c4.178,3.545,14.817,6.402,12.848,16.177c-8.767,0.991-30.729,1.733-39.676-0.133c-3.85-0.802-1.363-3.41,2.045-11.938
					C488.372,1167.865,488.065,1154.824,494.88,1154.141z"/>
			</g>
			<path style="fill:#005B54;" d="M523.263,1052.852c-5.025,29.938-10.408,57.073-13.687,74.175
				c-1.464,7.616-2.508,13.24-2.92,16.239c-6.55,0.968-14.465,1.098-20.344,2.953c-3.484-12.736-16.409-107.759-7.205-229.81
				c0.862-11.447,1.35-22.916,1.525-34.325c1.327,28.182,2.631,56.332,2.638,84.789c0,22.207,0.161,48.526,13.443,67.527
				c5.17,7.387,13.092,15.728,22.013,18.001C520.129,1052.76,521.654,1052.883,523.263,1052.852z"/>
		</g>
		<g>
			<g>
				<g>
					<path style="fill:#DE7F50;" d="M369.347,807.643c4.444,4.548,19.08,1.977,19.949,5.521c2.334,9.521-14.051,4.559-17.661,3.521
						L369.347,807.643z"/>
					<path style="fill:#DE7F50;" d="M367.799,800.502c4.444,4.548,19.08,1.974,19.949,5.519c2.334,9.521-14.05,4.559-17.661,3.52
						L367.799,800.502z"/>
					<path style="fill:#DE7F50;" d="M364.253,776.032c4.443,4.547,15.737,16.547,16.605,20.093
						c2.335,9.519-11.817,9.906-15.428,8.867L364.253,776.032z"/>
					<path style="fill:#FDA271;" d="M356.396,781.785c0.729-8,1.977-18.021,5.083-29.939l14.834,8.196
						c-0.282,0.235,3.049,5.348,3.928,7.445c1.322,3.153,2.065,6.477,1.918,10.017c-0.281,6.743-1.187,12.407,0.316,19.612
						c0.731,3.502,5.885,16.999-1.961,12.763c-5.784-3.122-3.818-15.505-8.343-18.805c-0.944,5.323-1.187,17.507,3.003,21.834
						c3.055,3.152,12.951,6.096,10.168,11.503c-2.753,5.347-23.312-7.995-25.265-13.099
						C357.094,803.511,355.662,789.823,356.396,781.785z"/>
				</g>
			</g>
			<g>
				<path style="fill:#FFFFFF;" d="M400.988,495.811c-3.337,29.98-4.446,55.98-4.809,86.571c-0.414,34.35-3.455,51.128-2.149,85.571
					c0,0,4.026,74.182,5.362,97.882h-45.101c-3.642-28.34-9.82-89.502-10.53-95.545c-2.257-19.203-2.411-35.475-2.159-57.039
					c0.443-38.085,1.836-47.709,3.582-85.58c0.852-18.535,7.008-64.635,11.024-82.754c1.593-7.193,4.696-18.403,13.97-22.804
					c4.779-2.268,15.119-6.054,20.06-8.302c1.212-0.551,2.094-1.007,2.499-1.329l-3.284,16.273
					C403.15,446.486,403.417,473.927,400.988,495.811z"/>
				<path style="opacity:0.5;fill:#86AEB8;" d="M400.988,495.811c-3.337,29.98-4.446,55.98-4.809,86.571
					c-0.414,34.35-3.455,51.128-2.149,85.571c0,0,4.026,74.182,5.362,97.882h-45.485c-3.451-26.953,9.106-171.906,9.106-193.594
					c0-35.072,0.766-58.751,1.796-81.832c1.3-29.044,25.501,12.281,25.866-16.862c0.089-7.212,0.175-15.278-0.816-22.413
					c-0.784-5.639-3.676-10.775-3.49-16.061c0.218-5.983,1.906-13.974,3.868-21.262c1.212-0.551,2.094-1.007,2.499-1.329
					l-3.284,16.273C403.15,446.486,403.417,473.927,400.988,495.811z"/>
			</g>
		</g>
		<path style="fill:#00CCCC;" d="M386.507,415.98c8.875-13.416,30.63-14.143,43.449-16.995l51.761-17.671
			c15.03,6.228,49.87,11.678,64.883,18.509c25.309,11.514,26.271,43.791,21.67,62.211c-11.401,45.643-18.986,275.531-13.233,300.859
			c-25.182,7.232-162.987,10.397-161.065-1.535c5.753-35.691-10.239-255.386-10.917-290.114
			C382.807,458.448,378.744,427.715,386.507,415.98z"/>
		<g>
			<path style="fill:#FFFFFF;" d="M366.538,732.282c-1.856,61.03-3.606,121.893-4.011,154.962c0,0,69.027,13.813,72.096,0.765
				c7.953-33.826,2.169-122.275,1.058-191.159c-0.714-44.26-1.764-85.594-3.207-112.038
				c-4.234-77.771-19.458-181.182-19.496-183.039c0,0-6.918,1.812-15.807,5.22h-0.008c-14.327,5.504-33.778,15.175-37.567,28.14
				c-4.702,16.125,12.133,99.817,12.133,117.441c0,15.061-2.301,85.93-4.608,160.857
				C366.921,719.693,366.729,725.988,366.538,732.282z"/>
			<path style="fill:#CACFD1;" d="M435.681,696.85c-0.057-0.667-0.114-1.335-0.166-2.003
				c-1.895-24.218-34.592-230.801-40.366-236.395c5.445-7.201,11.928-15.698,15.123-22.551
				c-5.722-3.694-17.621-10.709-24.259-10.463c2.676-6.262,7.292-12.336,11.154-18.445h0.005c8.887-3.408,15.804-5.22,15.804-5.22
				c0.04,1.857,15.264,105.269,19.5,183.039C433.916,611.256,434.969,652.59,435.681,696.85z"/>
		</g>
		<g>
			<g>
				<g>
					<g>
						<path style="fill:#E8E8E8;" d="M433.13,517.914c5.05,1.723,8.02,0.566,9.68-0.863c3.794-3.259,4.515-10.634,2.085-21.331
							c-1.47-6.473-5.066-16.029-7.691-23.007c-1.283-3.409-2.611-6.935-2.685-7.564c0.022,0.182-0.061,0.552-0.379,0.768
							l-1.185-1.852c-0.776,0.525-0.419,1.542,0.292,3.57c0.502,1.43,1.247,3.41,2.11,5.702c2.6,6.913,6.164,16.379,7.595,22.688
							c2.211,9.721,1.682,16.574-1.485,19.299c-2.226,1.911-5.872,1.721-10.55-0.556l-0.672,1.943
							C431.275,517.21,432.236,517.606,433.13,517.914z"/>
						<path style="fill:#171111;" d="M425.001,514.016c-0.414,1.972,1.366,4.294,3.978,5.187c2.613,0.89,5.064,0.012,5.479-1.958
							c0.413-1.971-1.367-4.295-3.978-5.185C427.868,511.169,425.415,512.044,425.001,514.016z"/>
					</g>
					<g>
						<path style="fill:#E8E8E8;" d="M413.502,517.199c-4.597,2.028-7.821,1.066-9.815-0.246c-4.551-3-7.04-10.27-7.204-21.04
							c-0.099-6.514,1.168-16.225,2.095-23.314c0.451-3.466,0.92-7.049,0.842-7.678c0.023,0.186,0.195,0.548,0.561,0.741
							l0.731-1.911c0.896,0.47,0.786,1.502,0.571,3.561c-0.155,1.449-0.418,3.459-0.721,5.789
							c-0.918,7.023-2.174,16.643-2.076,22.994c0.148,9.786,2.322,16.555,6.121,19.058c2.668,1.759,6.241,1.34,10.335-1.212
							l1.132,1.881C415.175,516.386,414.317,516.842,413.502,517.199z"/>
						<path style="fill:#171111;" d="M420.631,512.822c0.886,1.931-0.323,4.347-2.699,5.394c-2.376,1.05-5.02,0.335-5.907-1.597
							c-0.886-1.934,0.323-4.345,2.698-5.396C417.1,510.175,419.746,510.89,420.631,512.822z"/>
					</g>
					<g>
						<path style="fill:#393333;" d="M397.099,474.028c0.133,0.026,0.284-0.001,0.398,0.079c2.348,1.615,3.143,1.157,4.703,2.053
							c0.203-2.291,0.535-4.386,0.977-6.288c4.244-18.158,18.735-18.656,28.106-2.755c1.344,2.275,2.579,4.887,3.665,7.832
							c2.336-0.917,1.898-0.672,4.271-1.504c-3.486-11.569-18.133-38.935-26.322-39.925
							C402.796,432.295,399.267,462.321,397.099,474.028z"/>
					</g>
					<g style="opacity:0.5;">
						<g>
							<path style="fill:#004664;" d="M403.177,469.872c4.244-18.158,18.735-18.656,28.106-2.755
								c-3.973-9.902-13.553-28.306-18.317-28.884C406.189,437.408,402.971,466.656,403.177,469.872z"/>
						</g>
						<path style="fill:#FF9800;" d="M403.402,473.452c-0.041,0.093-0.056,0.207-0.048,0.334
							C403.534,476.044,403.51,475.311,403.402,473.452z"/>
					</g>
				</g>
			</g>
			<path style="fill:#393333;" d="M411.261,423.746c0.808-4.381,2.087-8.684,3.616-12.867c1.277-3.5,2.773-6.98,4.759-10.142
				c0.931-1.482,5.766-5.835,7.509-6.67c0.124,1.583,0,3.838-0.192,4.989c-2.108,0.193-3.841,3.463-4.233,4.125
				c-1.81,3.034-3.181,6.345-4.392,9.658c-1.377,3.772-2.451,7.663-3.199,11.606c-0.645,3.398-1.056,6.909-0.606,10.357
				c0.325,2.513-3.592,2.829-3.918,0.318C410.114,431.351,410.576,427.461,411.261,423.746z"/>
		</g>
		<g>
			<path style="fill:#FDA271;" d="M493.297,385.627c0.594,12.439-45.254,77.524-45.254,77.524s-16.966-40.521-20.549-58.957
				c-0.595-3.052-0.824-5.495-0.542-7.052c0.191-1.069,0.236-6.722,0.328-7.676c0.221-2.404,0.244-4.839,0.107-7.273
				c-0.374-6.914-1.929-13.85-3.271-20.109l54.846-27.937c-0.579,5.304-0.908,10.439-0.922,15.453
				c-0.038,5.883,0.35,11.591,1.242,17.163c0.854,5.379,2.173,10.63,4.041,15.788C483.948,384.268,492.573,384.001,493.297,385.627z
				"/>
		</g>
		<g>
			<path style="fill:#FFFFFF;" d="M469.137,899.523c16.375,0.83,85.363-9.947,97.835-15.674c-1.894-13.118-5.607-78.6-8.889-148.252
				c-0.407-8.644-0.806-17.356-1.197-26.038c-3.237-72.168-5.698-142.402-4.916-157.753c1.534-29.937,25.516-115.9,19.174-132.025
				c-5.1-12.965-31.301-22.638-50.604-28.139h-0.009c-11.972-3.41-21.29-5.222-21.29-5.222
				c-0.054,1.858-20.563,105.269-26.268,183.04c-1.941,26.445-3.361,67.779-4.319,112.039
				C466.567,777.248,469.052,899.226,469.137,899.523z"/>
			<path style="fill:#CACFD1;" d="M468.653,681.5c0.077-0.67,0.155-1.336,0.223-2.004c2.554-24.22,46.6-230.8,54.379-236.396
				c-7.331-7.199-16.069-15.697-20.37-22.551c7.707-3.693,23.737-10.708,32.68-10.463c-3.604-6.264-9.824-12.336-15.023-18.444
				h-0.009c-11.972-3.41-21.29-5.222-21.29-5.222c-0.054,1.858-20.563,105.269-26.268,183.04
				C471.031,595.906,469.611,637.24,468.653,681.5z"/>
		</g>
		<g>
			<g>
				<path style="fill:#E8E8E8;" d="M476.024,478.661c1.705,8.769,10.191,14.491,18.954,12.785
					c8.759-1.707,14.481-10.196,12.776-18.967c-0.11-0.564-0.246-1.112-0.411-1.65c-2.386-7.824-10.345-12.735-18.54-11.138
					c-8.199,1.598-13.734,9.137-13.015,17.283C475.837,477.536,475.915,478.097,476.024,478.661z"/>
				<path style="opacity:0.4;fill:#CDCBC8;" d="M475.787,476.974c2.387,7.826,10.343,12.739,18.542,11.142
					c8.197-1.596,13.733-9.136,13.013-17.286c-2.386-7.824-10.345-12.735-18.54-11.138
					C480.603,461.289,475.068,468.829,475.787,476.974z"/>
				<g>
					<path style="fill:#584F4F;" d="M479.302,474.032c1.133,5.826,6.772,9.628,12.593,8.495c5.823-1.133,9.624-6.778,8.49-12.603
						c-1.133-5.827-6.771-9.631-12.594-8.497C481.97,462.56,478.17,468.203,479.302,474.032z"/>
					<path style="fill:#393333;" d="M483.818,473.153c0.648,3.329,3.872,5.505,7.2,4.856c3.328-0.648,5.502-3.876,4.853-7.207
						c-0.646-3.33-3.871-5.506-7.198-4.856C485.343,466.594,483.169,469.82,483.818,473.153z"/>
				</g>
			</g>
			<path style="fill:#393333;" d="M495.531,395.38c-2.058-4.701-8.168-9.713-12.208-12.83c-1.014-2.197-1.347-4.621-1.777-6.395
				l5.613,3.327c5.178,3.838,8.559,6.322,11.687,12.262c2.932,5.568,3.926,11.908,4.054,18.132
				c0.287,14.02-3.922,27.914-7.077,41.432c-1.79,7.685-3.458,15.468-3.806,23.37c-0.131,2.941-4.683,2.59-4.551-0.352
				c0.613-13.91,4.93-27.451,7.892-40.971C498.01,421.268,500.699,407.186,495.531,395.38z"/>
		</g>
		<path style="fill:#FDA271;" d="M380.626,512.093c3.726-0.793,7.73,0.781,11.256,1.901c5.247,1.668,10.449,1.724,15.556,3.017
			c11.588,2.929,11.191,17.841,14.672,27.228l-14.742,1.308c0.681-1.958-13.349-13.054-16.378-16.105
			C387.517,525.944,378.05,517.751,380.626,512.093z"/>
		<path style="fill:#FFFFFF;" d="M527.296,640.364c0.491,1.749,1.381,3.493,2.57,5.18c5.231,7.393,16.375,13.74,26.53,14.785
			c7.793,0.804,15.008-1.513,18.522-8.889c1.151-2.417,2.217-4.93,3.198-7.533c13.193-34.846,11.881-85.24,11.252-127.448
			c-0.537-35.884,1.089-102.697-36.777-113.665l-9.671-0.085c-12.426,9.941-16.053,44.95-16.981,59.797
			c-2.37,37.978-1.457,81.655-0.369,120.294c0.031,1.284,0.069,2.557,0.108,3.832C526.199,604.807,522.348,622.833,527.296,640.364z
			"/>
		<path style="fill:#CACFD1;" d="M444.847,600.486c9.073,8.982,17.785,17.386,30.786,26.529
			c15.255,10.725,29.896,17.969,47.398,24.794c8.66,3.368,23.447,10.276,33.364,8.521c7.793,0.804,15.008-1.513,18.522-8.889
			c1.151-2.417,2.217-4.93,3.198-7.533c-2.171,0.893-4.364,1.652-6.581,2.289c-13.398,3.824-27.542,3.008-41.669-0.653
			c-30.556-7.93-61.037-29.161-83.738-45.38L444.847,600.486z"/>
		<path style="fill:#CACFD1;" d="M512.141,715.149c3.061,5.695,3.712,12.573,10.285,15.642c7.241,3.394,14.465-0.576,21.361,4.199
			c5.837,4.04,10.323,4.76,14.296,0.608c-0.407-8.644-0.806-17.356-1.197-26.038C542.267,712.14,518.944,714.414,512.141,715.149z"
			/>
		<path style="fill:#CACFD1;" d="M366.538,732.282c2.132-0.131,4.272-0.484,6.412-1.492c6.573-3.068,7.224-9.947,10.285-15.642
			c-2.953-0.315-9.004-0.928-16.114-1.718C366.921,719.693,366.729,725.988,366.538,732.282z"/>
		<path style="fill:#240101;" d="M378.591,274.263c-1.833,16.85,7.262,40.304,15.093,54.141c-3.417-20.344,4.169-38.662,20-51.07
			l1.525-30.525C398.346,246.796,380.822,253.772,378.591,274.263z"/>
		<path style="fill:#DE7F50;" d="M479.282,366.763c-0.74,2.068-1.471,4.006-2.058,5.707c-2.966,8.578-9.981,19.132-16.775,25.32
			c-6.55,5.968-14.701,11.569-23.889,10.798c-4.316-0.367-7.206-1.999-9.066-4.395c-0.595-3.052-0.824-5.495-0.542-7.052
			c0.191-1.069,0.236-6.722,0.328-7.676c0.221-2.404,0.244-4.839,0.107-7.273l50.653-32.592
			C478.001,355.483,478.39,361.191,479.282,366.763z"/>
		<g>
			<g>
				<path style="fill:#DE7F50;" d="M400.932,349.309c-0.041,0.032-0.08,0.063-0.123,0.089c-0.137,0.249-0.284,0.489-0.447,0.713
					L400.932,349.309z"/>
			</g>
		</g>
		<path style="fill:#FDA271;" d="M393.273,328.03c5.23,23.208,4.954,30.002,20.095,53.198c5.273,8.079,9.84,18.831,26.934,16.438
			c13.031-1.823,27.068-18.611,32.694-25.83c17.479-22.437,11.209-38.278,5.626-63.063c-7.618-33.821-34.068-61.138-57.016-57.047
			C393.009,256.825,385.655,294.208,393.273,328.03z"/>
		<g>
			<path style="fill:#DE7F50;" d="M438.886,330.26c0.806,0.4,1.115-2.244,2.402-2.156c4.273,0.639,10.565-0.685,14.308-2.695
				c2.34-1.041,4.636,0.919,4.616,0.869c-0.631-1.872-2.777-7.251-5.522-8.59c-1.412-0.654-3.198-1.01-5.404-0.692
				c-5.304,0.714-8.713,2.49-10.266,5.488C438.319,323.887,438.787,328.298,438.886,330.26z"/>
			<path style="fill:#FFFFFF;" d="M438.886,330.26c0.799,0.353,1.92,0.726,3.243,0.992c4.364,1.095,10.763-0.116,14.425-2.429
				c2.269-1.287,3.652-2.56,3.657-2.545c-0.645-1.916-1.904-4.117-4.575-5.215c-1.388-0.57-3.157-0.834-5.368-0.49
				c-5.332,0.762-8.847,2.144-10.431,4.923C439.11,326.76,438.784,328.278,438.886,330.26z"/>
			<path style="fill:#1A110E;" d="M439.941,326.021c0.408,1.831,1.169,3.575,2.189,5.231c4.364,1.095,10.763-0.116,14.425-2.429
				c0.171-1.994,0.043-4.062-0.434-6.083c-0.138-0.584-0.3-1.142-0.485-1.677c-1.388-0.57-3.157-0.834-5.368-0.49
				c-5.332,0.762-8.847,2.144-10.431,4.923C439.867,325.67,439.903,325.844,439.941,326.021z"/>
			<path style="fill:#FFFFFF;" d="M450.591,325.807c0.214,0.92,0.96,1.524,1.656,1.313c0.698-0.212,1.079-1.15,0.865-2.061
				c-0.216-0.911-0.947-1.469-1.643-1.271C450.773,323.991,450.377,324.882,450.591,325.807z"/>
		</g>
		<g>
			<path style="fill:#DE7F50;" d="M397.832,336.469c0.678,0.425,0.843-2.191,1.908-2.06c3.549,0.782,8.696-0.317,11.715-2.186
				c1.895-0.952,3.857,1.073,3.839,1.021c-0.584-1.88-2.54-7.297-4.851-8.721c-1.187-0.698-2.674-1.113-4.483-0.873
				c-4.353,0.527-7.105,2.175-8.283,5.099C397.145,330.12,397.683,334.516,397.832,336.469z"/>
			<path style="fill:#FFFFFF;" d="M397.832,336.469c0.671,0.377,1.609,0.785,2.709,1.097c3.639,1.237,8.878,0.253,11.821-1.919
				c1.829-1.2,2.926-2.417,2.931-2.404c-0.599-1.925-1.713-4.154-3.955-5.336c-1.165-0.615-2.633-0.936-4.446-0.671
				c-4.374,0.574-7.227,1.825-8.44,4.531C397.897,332.999,397.68,334.497,397.832,336.469z"/>
			<path style="fill:#1A110E;" d="M398.557,332.294c0.398,1.832,1.087,3.593,1.984,5.272c3.639,1.237,8.878,0.253,11.821-1.919
				c0.073-1.975-0.104-4.034-0.566-6.057c-0.133-0.585-0.287-1.146-0.458-1.683c-1.165-0.615-2.633-0.936-4.446-0.671
				c-4.374,0.574-7.227,1.825-8.44,4.531C398.484,331.944,398.52,332.117,398.557,332.294z"/>
			<path style="fill:#FFFFFF;" d="M407.338,332.447c0.209,0.921,0.844,1.547,1.411,1.36c0.569-0.186,0.851-1.105,0.643-2.016
				c-0.21-0.914-0.832-1.492-1.399-1.319C407.427,330.649,407.13,331.521,407.338,332.447z"/>
		</g>
		<path style="fill:#3B0301;" d="M432.656,303.161c9.586-1.96,20.136-3.39,27.472-2.32l1.898,8.687
			c-2.842,0.684-5.919,0.73-8.586,1.903c-0.767-2.113-2.077-3.835-2.689-6.056c0.357,1.68,0.331,4.674,0.704,6.445
			c-4.865,2.198-9.379,2.694-15.095,3.939C434.552,311.503,433.52,307.437,432.656,303.161z"/>
		<path style="fill:#3B0301;" d="M412.796,307.198c-7.272,1.122-15.105,2.97-20.073,6.004l0.669,7.904
			c2.18-0.246,4.379-1.097,6.547-0.877c0.054-2.017,0.583-3.852,0.504-5.91c0.137,1.527,0.851,4.053,0.996,5.661
			c3.971,0.452,7.295-0.436,11.65-1.042C413.387,314.811,413.176,311.073,412.796,307.198z"/>
		<path style="fill:#DE7F50;" d="M421.818,367.38c0,0,0.138,0.02,0.398,0.057c0.257,0.05,0.642,0.092,1.114,0.14
			c0.473,0.047,1.055,0.084,1.716,0.097c0.66,0.023,1.407-0.003,2.214-0.035c0.809-0.037,1.682-0.128,2.6-0.222
			c0.919-0.115,1.881-0.265,2.872-0.439c0.993-0.168,2.003-0.418,3.03-0.659c1.028-0.237,2.054-0.55,3.072-0.876
			c1.016-0.33,2.025-0.685,2.998-1.08c0.968-0.403,1.927-0.793,2.81-1.256c0.891-0.449,1.727-0.925,2.506-1.403
			c0.755-0.507,1.479-0.986,2.092-1.496c0.622-0.501,1.16-1.003,1.616-1.473c0.443-0.478,0.835-0.908,1.109-1.296
			c0.294-0.377,0.502-0.695,0.638-0.915c0.145-0.219,0.223-0.337,0.223-0.337s-0.036,0.135-0.102,0.388
			c-0.071,0.254-0.161,0.635-0.362,1.087c-0.176,0.466-0.445,1.012-0.81,1.605c-0.364,0.595-0.818,1.25-1.398,1.885
			c-0.559,0.661-1.241,1.301-2.001,1.933c-0.77,0.613-1.602,1.248-2.531,1.783c-0.918,0.555-1.892,1.086-2.919,1.538
			c-1.021,0.469-2.093,0.853-3.172,1.215c-1.09,0.32-2.185,0.625-3.279,0.849c-1.089,0.246-2.183,0.38-3.239,0.496
			c-1.055,0.129-2.087,0.143-3.06,0.149c-0.974-0.001-1.895-0.064-2.74-0.171c-0.845-0.094-1.612-0.237-2.283-0.409
			c-0.673-0.149-1.241-0.35-1.707-0.521c-0.471-0.167-0.813-0.337-1.046-0.455C421.942,367.444,421.818,367.38,421.818,367.38z"/>
		<path style="fill:#DE7F50;" d="M423.928,353.059c-0.374-7.376-1.602-16.932-1.602-24.342c0,0-2.609,20.342-0.405,28.947
			c4.127-1.37,9.592-2.698,13.977-3.001C432.036,354.049,427.965,353.26,423.928,353.059z"/>
		<g>
			<path style="fill:#FFFFFF;" d="M404.056,352.257L404.056,352.257c-5.103-0.001-9.509-2.793-12.742-8.076
				c-2.698-4.409-4.535-11.004-4.094-11.869c2.758-5.448,13.429-8.822,21.734-8.822c5.727,0,9.284,1.562,10.018,4.398
				c1.568,6.06,0.624,12.362-2.59,17.289c-2.483,3.806-5.98,6.248-9.844,6.875C405.696,352.187,404.862,352.257,404.056,352.257z
				 M389.438,333.025c0.495,2.424,3.933,16.942,14.618,16.943h0c0.683,0,1.395-0.06,2.115-0.176
				c3.221-0.522,6.167-2.606,8.294-5.866c2.864-4.389,3.699-10.025,2.292-15.464c-0.428-1.655-3.418-2.683-7.803-2.683
				C401.634,325.779,392,328.738,389.438,333.025z"/>
			<path style="fill:#FFFFFF;" d="M447.769,344.275c-0.001,0-0.001,0-0.002,0c-6.497-0.001-11.839-3.433-15.45-9.926
				c-1.789-3.217-3.701-8.803-3.113-9.751c3.717-6.105,17.687-9.36,26.341-9.36c4.286,0,9.595,0.722,10.544,4.16
				c1.495,5.419,0.595,11.269-2.469,16.05c-2.963,4.622-7.538,7.738-12.553,8.552C449.941,344.182,448.832,344.275,447.769,344.275z
				 M431.388,325.441c0.549,2.521,4.176,16.542,16.38,16.544c0.001,0,0.001,0,0.002,0c0.94,0,1.927-0.082,2.931-0.245
				c4.374-0.71,8.381-3.453,10.993-7.528c2.754-4.296,3.531-9.341,2.19-14.204c-0.416-1.507-3.69-2.481-8.339-2.481
				C446.637,317.527,434.655,320.888,431.388,325.441z"/>
			<path style="fill:#FFFFFF;" d="M419.081,328.595l-2.152-0.775c0.832-2.315,3.21-3.989,6.36-4.481
				c3.249-0.51,6.321,0.431,7.823,2.391l-1.815,1.394c-0.986-1.285-3.259-1.897-5.656-1.524
				C421.858,325.878,419.723,326.811,419.081,328.595z"/>
		</g>
		<g>
			<g>
				<path style="fill:#3C5B5B;" d="M286.554,471.912l40.083,158.983c1.761,6.991,8.188,12.359,14.347,11.982l81.414-5.001
					c6.158-0.38,9.867-6.367,8.283-13.373l-36.022-159.232c-1.585-7.002-8.092-12.366-14.532-11.968l-85.105,5.227
					C288.581,458.924,284.791,464.92,286.554,471.912z"/>
				<path style="fill:#273B3B;" d="M286.554,471.912l40.083,158.983c1.761,6.991,8.188,12.359,14.347,11.982l78.853-4.845
					c6.159-0.378,9.864-6.369,8.274-13.37l-36.121-159.224c-1.589-7.004-8.1-12.368-14.538-11.972l-82.429,5.063
					C288.581,458.924,284.791,464.92,286.554,471.912z"/>
			</g>
			<polygon style="fill:#E2D0D8;" points="331.928,612.48 298.678,467.779 379.914,464.361 415.758,609.588 			"/>
			<path style="fill:#847E7E;" d="M309.508,465.647l14.616-0.879l-0.318-5.289l-6.167,0.371c-0.729,0.044-1.356-0.512-1.4-1.242
				c-0.044-0.73,0.51-1.358,1.242-1.402l39.631-2.387c0.729-0.043,1.355,0.512,1.4,1.242c0.043,0.73-0.513,1.357-1.242,1.402
				l-6.165,0.371l0.32,5.288l14.615-0.88c1.049-0.064,1.977,1.199,2.074,2.823l0.089,1.469l-60.327,3.633l-0.088-1.469
				C307.69,467.077,308.46,465.71,309.508,465.647z"/>
		</g>
		<g>
			<path style="fill:#FDA271;" d="M447.554,576.122c-0.892,8.768-20.915,1.213-26.482,1.556c-5.566,0.351-12.185-1.9-17.293-3.518
				c-1.891-0.603-3.69-1.221-5.444-1.923c-7.427-2.961-13.893-7.326-21.533-17.33c-3.37-4.411-2.981-10.241-6.999-12.866
				c-2.044-1.336-3.691-5.487-4.408-8.814c-0.785-3.671,0.495-4.662,5.246-4.388c0.069,0,0.145,0.008,0.221,0.015
				c0.366,0.023,0.732,0.046,1.106,0.084c0.442,0.038,0.907,0.084,1.395,0.137c5.757,0.634,11.62,1.985,13.351,2.359
				c8.449,1.831,19.658,5.616,26.291-1.045l4.491-0.489c1.449,3.19,9.425,15.033,15.128,22.062
				C435.522,555.525,448.287,568.933,447.554,576.122z"/>
			<path style="fill:#DE7F50;" d="M398.335,572.237c-7.427-2.961-13.893-7.326-21.533-17.33c-3.37-4.411-2.981-10.241-6.999-12.866
				c-2.044-1.336-3.691-5.487-4.408-8.814c-0.785-3.671,0.495-4.662,5.246-4.388c0.069,0,0.145,0.008,0.221,0.015
				c0.366,0.023,0.732,0.046,1.106,0.084c0.442,0.038,0.907,0.084,1.395,0.137c-0.153,1.031-0.076,2.183,0.358,3.557
				c1.266,3.945,6.535,7.036,9.57,9.134c-5.788,6.159,4.643,8.753,7.03,12.05c1.449,1.999,0.16,5.678,1.876,8.516
				c1.281,2.122,4.194,3.587,6.1,4.854C397.816,568.834,397.878,570.551,398.335,572.237z"/>
		</g>
		<g>
			<path style="fill:#FFFFFF;" d="M425.588,582.071c7.408,6.609,13.406,12.627,19.259,18.415
				c9.073,8.982,17.785,17.386,30.786,26.529c15.255,10.725,29.896,17.969,47.398,24.794c8.66,3.368,23.447,10.276,33.364,8.521
				c1.066-0.186,2.078-0.478,3.021-0.883c5.124-2.21,9.419-7.362,12.118-13.249c3.145-6.809,4.15-14.624,1.841-20.041
				c-6.381-15.015-15.822-30.927-30.978-38.057c-5.124-2.412-10.845-4.033-16.828-5.298c-15.356-3.253-32.458-4.198-45.688-10.252
				c-15.446-7.07-38.004-12.804-48.673-25.426L425.588,582.071z"/>
			<path style="fill:#CACFD1;" d="M541.195,476.82v-0.802c3.103,18.117-3.95,91.605,1.586,100.456
				c6.433,10.278,14.118,17.738,14.509,31.028c-8.148-10.877-16.496-25.218-30.227-28.603
				C529.689,564.675,537.376,479.398,541.195,476.82z"/>
			<g>
				<path style="fill:#CACFD1;" d="M431.209,547.123c13.246,10.445,72.936,28.585,83.092,30.086
					c7.72,1.141,19.604,1.697,25.689,5.67l12.007,13.158c-14.458-12.749-38.088-11.144-55.359-15.524
					C474.767,574.963,449.674,568.817,431.209,547.123z"/>
				<path style="fill:#CACFD1;" d="M554.04,601.358l-4.853-5.322C550.947,597.591,552.58,599.34,554.04,601.358z"/>
			</g>
		</g>
		<g>
			<path style="fill:#3B0301;" d="M489.934,299.975c-0.519,5.938-2.387,11.447-3.05,17.551c-0.938,8.639-3.759,10.165-11.186,13.225
				c-7.541-19.749,3.05-35.103-11.864-37.553c-14.175-2.327-26.261-2.64-39.475-9.249c-1.502-0.747-3.072-1.152-4.682-1.267
				c-9.127-0.664-19.451,8.074-25.093,16.254c0.221-13.865,2.775-25.014,8.212-37.88c2.905-6.868,7.152-12.377,12.222-17.551
				c3.058-3.129,51.156-25.45,72.491,13.514c0.945,1.733,1.837,3.587,2.676,5.563C495.02,274.022,491.017,287.521,489.934,299.975z"
				/>
			<path style="fill:#3B0301;" d="M424.359,251.388c-6.567-4.106-12.505-1.064-18.772,2.42
				c-7.282,4.048-11.731,18.691-13.113,22.906c-4.333,13.211,0.242,19.698,2.111,22.223L424.359,251.388z"/>
			<path style="fill:#240101;" d="M489.934,299.975c-0.519,5.938-2.387,11.447-3.05,17.551c-0.938,8.639-3.759,10.165-11.186,13.225
				c-7.541-19.749,3.05-35.103-11.864-37.553c-14.175-2.327-26.261-2.64-39.475-9.249c-1.502-0.747-3.072-1.152-4.682-1.267
				c2.478-0.687,5.109-2.709,7.732-3.327c3.393-0.794,6.794-0.474,10.172,0.038c7.747,1.19,14.305,2.465,21.853,3.281
				c7.099,0.771,14.518,4.258,16.15-3.931c1.677-8.416-8.143-22.015-19.581-28.501c17.156,1.526,21.403,17.506,26.817,22.969
				c2.333-3.518,4.987-10.805,4.689-16.193c0.945,1.733,1.837,3.587,2.676,5.563C495.02,274.022,491.017,287.521,489.934,299.975z"
				/>
		</g>
		<g>
			<path style="fill:#FDA271;" d="M477.41,321.631c-1.695,9.186,1.868,17.542,7.956,18.669c6.09,1.125,12.401-5.409,14.096-14.592
				c1.696-9.186-1.868-17.546-7.958-18.67C485.417,305.913,479.106,312.447,477.41,321.631z"/>
			<path style="fill:#DE7F50;" d="M487.265,311.76c-4.306,1.32-4.217,5.309-5.958,8.716c7.982-3.023,5.991,12.185,0.239,7.986
				l-0.381,0.763c9.453,7.637,14.314-12.1,5.09-10.657c2.255-3.442,6.732-5.716,9.035-0.923
				C494.569,313.679,491.94,310.326,487.265,311.76z"/>
		</g>
	</g>
	<rect x="0.325" y="-0.337" style="fill:none;" width="990" height="1320"/>
	<rect x="0.325" y="0.404" style="fill:none;" width="989.285" height="1319.259"/>
</g>
</svg>
